<svg id="visual" viewBox="0 0 900 600" width="900" height="600" xmlns="http://www.w3.org/2000/svg" xmlns:xlink="http://www.w3.org/1999/xlink" version="1.1"><rect width="900" height="600" fill="#A33E62"></rect><g><g transform="translate(507 168)"><path d="M47.9 -38.6C58.4 -25.1 60.6 -5.4 56.6 13.3C52.6 32 42.5 49.6 26.8 58C11.2 66.4 -10 65.6 -26.1 56.8C-42.3 48.1 -53.4 31.4 -57.5 13.2C-61.6 -5 -58.6 -24.7 -47.9 -38.3C-37.1 -51.8 -18.6 -59.2 0.1 -59.3C18.7 -59.3 37.5 -52.1 47.9 -38.6Z" fill="#4D98E4"></path></g><g transform="translate(849 239)"><path d="M48.9 -40.1C60.4 -24.6 64.8 -4.4 61.3 15.3C57.9 35.1 46.7 54.3 31.1 60C15.6 65.7 -4.2 57.9 -20.3 47.9C-36.3 37.9 -48.5 25.9 -55.2 9C-62 -7.9 -63.2 -29.7 -53.1 -44.9C-43 -60.2 -21.5 -68.9 -1.4 -67.8C18.7 -66.7 37.4 -55.7 48.9 -40.1Z" fill="#4D98E4"></path></g><g transform="translate(656 558)"><path d="M36.7 -31.1C43.4 -20.8 41.9 -5.8 38.4 8.4C34.9 22.7 29.4 36.2 19.3 41.6C9.2 47.1 -5.5 44.5 -16.8 37.9C-28.2 31.3 -36.2 20.7 -40.9 7.2C-45.6 -6.2 -47.2 -22.5 -39.8 -32.9C-32.4 -43.3 -16.2 -47.7 -0.6 -47.2C15 -46.7 30 -41.3 36.7 -31.1Z" fill="#4D98E4"></path></g><g transform="translate(113 434)"><path d="M32.3 -24C42.3 -13.1 51.4 0.4 49.1 11.6C46.9 22.9 33.3 32 19.9 36.8C6.4 41.6 -7 42 -17.7 36.9C-28.4 31.7 -36.3 20.9 -40.8 7.6C-45.2 -5.8 -46.2 -21.7 -38.8 -31.9C-31.4 -42.2 -15.7 -46.8 -2.3 -45C11.1 -43.1 22.2 -34.8 32.3 -24Z" fill="#4D98E4"></path></g><g transform="translate(406 407)"><path d="M51.6 -41.3C62.7 -27.1 64.8 -5.9 60.1 13.2C55.3 32.4 43.7 49.5 27.4 57.6C11.1 65.8 -9.9 65 -27.8 56.8C-45.7 48.5 -60.4 32.8 -62.5 16.3C-64.7 -0.2 -54.2 -17.5 -41.6 -32C-29.1 -46.5 -14.5 -58.2 2.8 -60.5C20.2 -62.7 40.4 -55.5 51.6 -41.3Z" fill="#4D98E4"></path></g><g transform="translate(298 192)"><path d="M34.4 -28.7C43.2 -16.3 48 -2.1 44.9 9.8C41.8 21.7 30.8 31.3 18.6 36.2C6.4 41.2 -6.8 41.4 -17.2 36.3C-27.7 31.1 -35.2 20.4 -38.1 8.5C-40.9 -3.4 -39.1 -16.6 -32 -28.5C-24.8 -40.5 -12.4 -51.2 0.2 -51.3C12.8 -51.5 25.5 -41 34.4 -28.7Z" fill="#4D98E4"></path></g></g></svg>