<svg id="visual" viewBox="0 0 900 900" width="900" height="900" xmlns="http://www.w3.org/2000/svg" xmlns:xlink="http://www.w3.org/1999/xlink" version="1.1"><g transform="translate(453.79521852709985 439.17716555455)"><path d="M264.7 -306.4C348.5 -245 425.9 -166.9 441.6 -77.9C457.3 11.2 411.4 111.1 356.6 205.8C301.8 300.4 238.1 389.8 150.2 428.9C62.2 468 -49.9 456.7 -160.2 423.7C-270.5 390.7 -378.8 336 -424.2 249C-469.5 162 -451.9 42.7 -428.1 -72.6C-404.4 -187.9 -374.5 -299.3 -302.1 -362.7C-229.7 -426.1 -114.8 -441.5 -12.2 -427C90.4 -412.4 180.8 -367.8 264.7 -306.4" fill="#A33E62"></path></g></svg>