<svg xmlns="http://www.w3.org/2000/svg" version="1.1" xmlns:xlink="http://www.w3.org/1999/xlink" xmlns:svgjs="http://svgjs.dev/svgjs" width="2000" height="2066" viewBox="0 0 2000 2066"><g transform="matrix(1,0,0,1,1.1239306015137345,0.837981828543434)"><svg viewBox="0 0 239 247" data-background-color="#ffffff" preserveAspectRatio="xMidYMid meet" height="2066" width="2000" xmlns="http://www.w3.org/2000/svg" xmlns:xlink="http://www.w3.org/1999/xlink"><g id="tight-bounds" transform="matrix(1,0,0,1,-0.13414391319071228,-0.09997365579206985)"><svg viewBox="0 0 239.26845362007168 247.2" height="247.2" width="239.26845362007168"><g><svg viewBox="0 0 239.26845362007168 247.2" height="247.2" width="239.26845362007168"><g><svg viewBox="0 0 239.26845362007168 247.2" height="247.2" width="239.26845362007168"><g id="textblocktransform"><svg viewBox="0 0 239.26845362007168 247.2" height="247.2" width="239.26845362007168" id="textblock"><g><svg viewBox="0 0 239.26845362007168 247.2" height="247.2" width="239.26845362007168"><path d="M238.708 53.02C237.583 27.36 234.378 20.227 234.378 20.227 224.535-6.202 212.252-0.506 201.217 3.292 181.735 3.446 162.331 9.091 142.893 12.119 102.095 12.581 60.948 4.986 20.352 23.717 16.539 29.464-3.956 24.846 0.678 56.304 1.893 69.39 6.325 83.913 6.19 95.922 6.797 98.026 7.641 93.202 8.001 96.23 9.261 104.39 11.319 100.541 13.007 105.365 10.656 118.246 12.343 128.971 13.952 140.21 11.117 143.135 7.484 141.749 5.853 151.449 5.684 158.479 4.773 157.145 3.772 156.837 3.04 156.632 1.567 157.402 1.814 159.608 2.658 167.152-0.964 171.514 1.308 178.904-0.255 186.91 2.388 193.838 2.028 202.511 1.983 204.255 2.231 205.744 2.624 206.154 4.368 208.361 1.826 212.672 2.096 217.342 19.981 249.262 39.384 227.195 57.708 241.872 62.466 231.608 58.889 245.516 60.79 243.36 62.275 240.846 63.355 251.263 65.031 245.362 65.29 243.668 64.896 239.665 65.818 240.435 66.302 240.846 66.73 240.743 66.797 238.382 66.898 234.841 66.01 237.048 65.773 235.201 68.327 225.861 67.697 248.081 70.093 247.158 69.98 244.438 69.283 240.538 70.712 241.051 72.129 237.151 72.174 233.918 73.434 242.693 73.479 244.592 73.704 245.926 74.064 246.85 78.001 237.305 81.915 250.237 86.043 245.926 88.574 241.205 91.004 248.492 93.569 246.696 94.468 245.259 95.38 242.693 96.246 247.004 106.853 247.928 118.158 244.079 128.214 247.158 155.087 241.41 183.804 249.518 212.139 241.923 218.821 238.998 225.761 234.841 232.274 231.506 232.274 231.506 237.55 222.371 237.55 181.316S238.675 145.393 238.843 112.703C239.012 80.013 239.799 78.679 238.675 53.02Z" opacity="1" fill="#4d98e4" data-fill-palette-color="tertiary"></path><g transform="matrix(1,0,0,1,55.76832,26.230666666666668)"><svg width="127.73181362007168" viewBox="4.65 -32.1 21.35 32.550000000000004" height="194.73866666666666" data-palette-color="#ffffff"><path d="M17.7-12.95Q21-7.5 26-0.95L26-0.95 25.95-0.45Q24.15 0.25 22.25 0.45L22.25 0.45 21.7 0.1Q17.6-6.05 14.35-11.9L14.35-11.9 8.5-11.9 8.5-10 8.7 0 4.65 0 4.9-9.65 4.65-32.05 14.45-32.1Q19.15-32.1 21.73-29.73 24.3-27.35 24.3-22.95L24.3-22.95Q24.3-19.65 22.58-17.03 20.85-14.4 17.7-12.95L17.7-12.95ZM8.7-28.65L8.55-15.3 14.55-15.15Q20.15-16.75 20.15-22.6L20.15-22.6Q20.15-25.65 18.5-27.18 16.85-28.7 13.55-28.8L13.55-28.8 8.7-28.65Z" opacity="1" transform="matrix(1,0,0,1,0,0)" fill="#ffffff" class="wordmark-text-0" data-fill-palette-color="quaternary" id="text-0"></path></svg></g></svg></g></svg></g></svg></g><g></g></svg></g><defs></defs></svg><rect width="239.26845362007168" height="247.2" fill="none" stroke="none" visibility="hidden"></rect></g></svg></g></svg>